0
SECTION
2
HEADER
9
$INSUNITS
70
4
9
$ACADVER
1
AC1014
9
$HANDSEED
5
FFFF
0
ENDSEC
0
SECTION
2
TABLES
0
TABLE
2
VPORT
5
8
100
AcDbSymbolTable
0
ENDTAB
0
TABLE
2
LTYPE
5
5
100
AcDbSymbolTable
0
LTYPE
5
14
100
AcDbSymbolTableRecord
100
AcDbLinetypeTableRecord
2
BYBLOCK
70
0
0
LTYPE
5
15
100
AcDbSymbolTableRecord
100
AcDbLinetypeTableRecord
2
BYLAYER
70
0
0
ENDTAB
0
TABLE
2
LAYER
5
2
100
AcDbSymbolTable
70
2
0
LAYER
5
50
100
AcDbSymbolTableRecord
100
AcDbLayerTableRecord
2
0
70
0
6
CONTINUOUS
0
ENDTAB
0
TABLE
2
STYLE
5
3
100
AcDbSymbolTable
70
1
0
STYLE
5
11
100
AcDbSymbolTableRecord
100
AcDbTextStyleTableRecord
2
STANDARD
70
0
0
ENDTAB
0
TABLE
2
VIEW
5
6
100
AcDbSymbolTable
70
0
0
ENDTAB
0
TABLE
2
UCS
5
7
100
AcDbSymbolTable
70
0
0
ENDTAB
0
TABLE
2
APPID
5
9
100
AcDbSymbolTable
70
2
0
APPID
5
12
100
AcDbSymbolTableRecord
100
AcDbRegAppTableRecord
2
ACAD
70
0
0
ENDTAB
0
TABLE
2
DIMSTYLE
5
A
100
AcDbSymbolTable
70
1
0
ENDTAB
0
TABLE
2
BLOCK_RECORD
5
1
100
AcDbSymbolTable
70
1
0
BLOCK_RECORD
5
1F
100
AcDbSymbolTableRecord
100
AcDbBlockTableRecord
2
*MODEL_SPACE
0
BLOCK_RECORD
5
1B
100
AcDbSymbolTableRecord
100
AcDbBlockTableRecord
2
*PAPER_SPACE
0
ENDTAB
0
ENDSEC
0
SECTION
2
BLOCKS
0
BLOCK
5
20
100
AcDbEntity
100
AcDbBlockBegin
2
*MODEL_SPACE
0
ENDBLK
5
21
100
AcDbEntity
100
AcDbBlockEnd
0
BLOCK
5
1C
100
AcDbEntity
100
AcDbBlockBegin
2
*PAPER_SPACE
0
ENDBLK
5
1D
100
AcDbEntity
100
AcDbBlockEnd
0
ENDSEC
0
SECTION
2
ENTITIES
0
LWPOLYLINE
5
100
100
AcDbEntity
8
0
100
AcDbPolyline
90
21
70
1
43
0.0
10
-25.992978080409806
20
30.860256416378565
42
-0.10500648063811521
10
21.515561512633909
20
32.838780434357879
10
21.515561512633887
20
31.147200466721575
10
18.127440488823275
20
27.377574491194583
42
0.088129853301764205
10
-19.819645083769501
20
26.217256861302367
42
0.35498150734020478
10
-22.999999344348915
20
22.302134786337739
10
-22.999999344348915
20
-30.999999761581428
42
0.4142135623730947
10
-18.999999344348915
20
-34.999999761581428
10
8.9156674774478528
20
-34.999999761581428
42
0.19891236737965967
10
11.744094602194039
20
-33.828426886327613
10
26.813189947374411
20
-18.759331541147226
42
0.19781150244738427
10
27.984726922515122
20
-15.94785138119779
10
28.041426555616656
20
-2.5651306637373295
10
33.999965213369521
20
-2.5651306637373295
10
33.999965213369521
20
-18.400983399861921
42
-0.19891236737925336
10
32.828392338135338
20
-21.229410524566951
10
14.229375738014021
20
-39.828427124746199
42
-0.1989123673796587
10
11.400948613267827
20
-41.000000000000007
10
-24.999999582767501
20
-41.000000000000007
42
-0.41421356237309437
10
-28.999999582767494
20
-37.000000000000007
10
-28.999999582767462
20
26.985466912002888
42
-0.34250492137459615
0
CIRCLE
5
101
100
AcDbEntity
8
0
100
AcDbCircle
10
17.00000025331974
20
31.000000536441803
30
0
40
1.7500000000000007
210
0
220
-0
230
1
0
LWPOLYLINE
5
102
100
AcDbEntity
8
0
100
AcDbPolyline
90
8
70
1
43
0.0
10
29.15447214488324
20
28.499932725201994
10
29.154472144883581
20
31.276832472639953
42
-0.0041514946284075668
10
30.998748782874781
20
30.817556704641973
42
-0.34208641614501534
10
33.999965213369521
20
26.944259481183224
10
33.999965213369521
20
0.53063605377968059
10
28.054542635728986
20
0.53063605377968059
10
28.160009166965235
20
25.423727161558144
10
28.172841968155666
20
28.499932725201987
0
CIRCLE
5
103
100
AcDbEntity
8
0
100
AcDbCircle
10
31.000000461935997
20
26.000000461935997
30
0
40
1.7500000000000002
210
0
220
-0
230
1
0
CIRCLE
5
104
100
AcDbEntity
8
0
100
AcDbCircle
10
31.000000461935997
20
3.9999998062849063
30
0
40
1.7500000000000013
210
0
220
-0
230
1
0
CIRCLE
5
105
100
AcDbEntity
8
0
100
AcDbCircle
10
31.000000461935997
20
-18.000000193715096
30
0
40
1.7500000000000013
210
0
220
-0
230
1
0
CIRCLE
5
106
100
AcDbEntity
8
0
100
AcDbCircle
10
11.000000111758709
20
-38.000000491738319
30
0
40
1.7500000000000002
210
0
220
-0
230
1
0
CIRCLE
5
107
100
AcDbEntity
8
0
100
AcDbCircle
10
-24.999999582767494
20
-37.000000000000007
30
0
40
1.7499999999999978
210
0
220
-0
230
1
0
CIRCLE
5
108
100
AcDbEntity
8
0
100
AcDbCircle
10
-24.999999582767472
20
26.98546691200287
30
0
40
1.7500000000000027
210
0
220
-0
230
1
0
ENDSEC
0
SECTION
2
OBJECTS
0
DICTIONARY
5
C
100
AcDbDictionary
3
ACAD_GROUP
350
D
3
ACAD_MLINESTYLE
350
17
0
DICTIONARY
5
D
100
AcDbDictionary
0
DICTIONARY
5
1A
330
C
100
AcDbDictionary
0
DICTIONARY
5
17
100
AcDbDictionary
0
ENDSEC
0
EOF
