0
SECTION
2
HEADER
9
$INSUNITS
70
4
9
$ACADVER
1
AC1014
9
$HANDSEED
5
FFFF
0
ENDSEC
0
SECTION
2
TABLES
0
TABLE
2
VPORT
5
8
100
AcDbSymbolTable
0
ENDTAB
0
TABLE
2
LTYPE
5
5
100
AcDbSymbolTable
0
LTYPE
5
14
100
AcDbSymbolTableRecord
100
AcDbLinetypeTableRecord
2
BYBLOCK
70
0
0
LTYPE
5
15
100
AcDbSymbolTableRecord
100
AcDbLinetypeTableRecord
2
BYLAYER
70
0
0
ENDTAB
0
TABLE
2
LAYER
5
2
100
AcDbSymbolTable
70
2
0
LAYER
5
50
100
AcDbSymbolTableRecord
100
AcDbLayerTableRecord
2
0
70
0
6
CONTINUOUS
0
ENDTAB
0
TABLE
2
STYLE
5
3
100
AcDbSymbolTable
70
1
0
STYLE
5
11
100
AcDbSymbolTableRecord
100
AcDbTextStyleTableRecord
2
STANDARD
70
0
0
ENDTAB
0
TABLE
2
VIEW
5
6
100
AcDbSymbolTable
70
0
0
ENDTAB
0
TABLE
2
UCS
5
7
100
AcDbSymbolTable
70
0
0
ENDTAB
0
TABLE
2
APPID
5
9
100
AcDbSymbolTable
70
2
0
APPID
5
12
100
AcDbSymbolTableRecord
100
AcDbRegAppTableRecord
2
ACAD
70
0
0
ENDTAB
0
TABLE
2
DIMSTYLE
5
A
100
AcDbSymbolTable
70
1
0
ENDTAB
0
TABLE
2
BLOCK_RECORD
5
1
100
AcDbSymbolTable
70
1
0
BLOCK_RECORD
5
1F
100
AcDbSymbolTableRecord
100
AcDbBlockTableRecord
2
*MODEL_SPACE
0
BLOCK_RECORD
5
1B
100
AcDbSymbolTableRecord
100
AcDbBlockTableRecord
2
*PAPER_SPACE
0
ENDTAB
0
ENDSEC
0
SECTION
2
BLOCKS
0
BLOCK
5
20
100
AcDbEntity
100
AcDbBlockBegin
2
*MODEL_SPACE
0
ENDBLK
5
21
100
AcDbEntity
100
AcDbBlockEnd
0
BLOCK
5
1C
100
AcDbEntity
100
AcDbBlockBegin
2
*PAPER_SPACE
0
ENDBLK
5
1D
100
AcDbEntity
100
AcDbBlockEnd
0
ENDSEC
0
SECTION
2
ENTITIES
0
LINE
5
100
100
AcDbEntity
8
0
100
AcDbLine
10
-28.999999582767494
20
-37.000000000000007
30
0
11
-28.999999582767494
21
26.985466912002888
31
0
0
ARC
5
101
100
AcDbEntity
8
0
100
AcDbCircle
10
-24.999999582767472
20
26.98546691200287
30
0
40
3.9999999999999676
210
0
220
0
230
1
100
AcDbArc
50
104.37366238327111
51
180
0
CIRCLE
5
102
100
AcDbEntity
8
0
100
AcDbCircle
10
-24.999999582767472
20
26.98546691200287
30
0
40
1.7500000000000027
210
0
220
-0
230
1
0
ARC
5
103
100
AcDbEntity
8
0
100
AcDbCircle
10
-18.999999344348886
20
22.302134786337724
30
0
40
4.0000000000031992
210
0
220
0
230
1
100
AcDbArc
50
101.82431457984796
51
180
0
ARC
5
104
100
AcDbEntity
8
0
100
AcDbCircle
10
2.4198329939137753
20
-80.011894795335436
30
0
40
108.53214752715763
210
0
220
-0
230
1
100
AcDbArc
50
81.67848909502348
51
101.82431457984794
0
LINE
5
105
100
AcDbEntity
8
0
100
AcDbLine
10
-22.999999344348915
20
-30.999999761581428
30
0
11
-22.999999344348915
21
22.302134786337739
31
0
0
LINE
5
106
100
AcDbEntity
8
0
100
AcDbLine
10
18.12744048882325
20
27.377574491194562
30
0
11
21.515561512633887
21
31.147200466721575
31
0
0
LINE
5
107
100
AcDbEntity
8
0
100
AcDbLine
10
29.154472144883247
20
31.27683247264001
30
0
11
29.15447214488324
21
28.499932725201994
31
0
0
LINE
5
108
100
AcDbEntity
8
0
100
AcDbLine
10
29.15447214488324
20
28.499932725201994
30
0
11
28.172841968155666
21
28.499932725201987
31
0
0
LINE
5
109
100
AcDbEntity
8
0
100
AcDbLine
10
28.160009166965235
20
25.423727161558144
30
0
11
28.172841968155666
21
28.499932725201987
31
0
0
CIRCLE
5
110
100
AcDbEntity
8
0
100
AcDbCircle
10
31.000000461935997
20
26.000000461935997
30
0
40
1.7500000000000002
210
0
220
-0
230
1
0
ARC
5
111
100
AcDbEntity
8
0
100
AcDbCircle
10
29.999965213375024
20
26.94425948118322
30
0
40
3.9999999999944968
210
0
220
-0
230
1
100
AcDbArc
50
0
51
75.540482600718505
0
LINE
5
112
100
AcDbEntity
8
0
100
AcDbLine
10
27.984726922515122
20
-15.94785138119779
30
0
11
28.160009166965235
21
25.423727161558144
31
0
0
LINE
5
113
100
AcDbEntity
8
0
100
AcDbLine
10
33.999965213369521
20
26.944259481183224
30
0
11
33.999965213369521
21
-18.400983399861921
31
0
0
ARC
5
114
100
AcDbEntity
8
0
100
AcDbCircle
10
29.999965213421508
20
-18.400983399861921
30
0
40
3.999999999948014
210
-0
220
0
230
1
100
AcDbArc
50
-44.999999999910898
51
0
0
ARC
5
115
100
AcDbEntity
8
0
100
AcDbCircle
10
23.984762822628252
20
-15.930904416401061
30
0
40
3.9999999999999596
210
-0
220
0
230
1
100
AcDbArc
50
314.99999999999994
51
359.75725188417465
0
CIRCLE
5
116
100
AcDbEntity
8
0
100
AcDbCircle
10
31.000000461935997
20
-18.000000193715096
30
0
40
1.7500000000000013
210
0
220
-0
230
1
0
LINE
5
117
100
AcDbEntity
8
0
100
AcDbLine
10
32.828392338135338
20
-21.229410524566951
30
0
11
14.229375738014019
21
-39.828427124746199
31
0
0
LINE
5
118
100
AcDbEntity
8
0
100
AcDbLine
10
26.813189947374411
20
-18.759331541147226
30
0
11
11.744094602194039
21
-33.828426886327613
31
0
0
ARC
5
119
100
AcDbEntity
8
0
100
AcDbCircle
10
11.400948613267834
20
-37.000000000000021
30
0
40
3.9999999999999858
210
0
220
0
230
1
100
AcDbArc
50
269.99999999999989
51
315.00000000000006
0
ARC
5
120
100
AcDbEntity
8
0
100
AcDbCircle
10
8.9156674774478599
20
-30.999999761581456
30
0
40
3.999999999999968
210
0
220
0
230
1
100
AcDbArc
50
269.99999999999989
51
315.00000000000028
0
CIRCLE
5
121
100
AcDbEntity
8
0
100
AcDbCircle
10
11.000000111758709
20
-38.000000491738319
30
0
40
1.7500000000000002
210
0
220
-0
230
1
0
LINE
5
122
100
AcDbEntity
8
0
100
AcDbLine
10
11.400948613267829
20
-41.000000000000007
30
0
11
-24.999999582767501
21
-41.000000000000007
31
0
0
LINE
5
123
100
AcDbEntity
8
0
100
AcDbLine
10
-18.999999344348915
20
-34.999999761581428
30
0
11
8.9156674774478528
21
-34.999999761581428
31
0
0
ARC
5
124
100
AcDbEntity
8
0
100
AcDbCircle
10
-18.999999344348911
20
-30.999999761581428
30
0
40
4.0000000000000036
210
0
220
0
230
1
100
AcDbArc
50
180
51
269.99999999999994
0
ARC
5
125
100
AcDbEntity
8
0
100
AcDbCircle
10
-24.999999582767494
20
-37.000000000000007
30
0
40
3.9999999999999991
210
0
220
0
230
1
100
AcDbArc
50
180
51
269.99999999999994
0
CIRCLE
5
126
100
AcDbEntity
8
0
100
AcDbCircle
10
-24.999999582767494
20
-37.000000000000007
30
0
40
1.749999999999998
210
0
220
-0
230
1
0
CIRCLE
5
127
100
AcDbEntity
8
0
100
AcDbCircle
10
17.00000025331974
20
31.000000536441803
30
0
40
1.7500000000000007
210
0
220
-0
230
1
0
LINE
5
128
100
AcDbEntity
8
0
100
AcDbLine
10
21.515561512633887
20
31.147200466721575
30
0
11
21.515561512633887
21
32.838780434357879
31
0
0
ARC
5
129
100
AcDbEntity
8
0
100
AcDbCircle
10
2.4198329939137753
20
-80.011894795335436
30
0
40
114.45488957427015
210
0
220
-0
230
1
100
AcDbArc
50
75.540482600718477
51
76.491929618225882
0
ARC
5
130
100
AcDbEntity
8
0
100
AcDbCircle
10
2.4198329939137753
20
-80.011894795335436
30
0
40
114.45488957427015
210
0
220
-0
230
1
100
AcDbArc
50
80.395821531323733
51
104.37366238327118
0
CIRCLE
5
131
100
AcDbEntity
8
0
100
AcDbCircle
10
31.000000461935997
20
3.9999998062849063
30
0
40
1.7500000000000013
210
0
220
-0
230
1
0
ENDSEC
0
SECTION
2
OBJECTS
0
DICTIONARY
5
C
100
AcDbDictionary
3
ACAD_GROUP
350
D
3
ACAD_MLINESTYLE
350
17
0
DICTIONARY
5
D
100
AcDbDictionary
0
DICTIONARY
5
1A
330
C
100
AcDbDictionary
0
DICTIONARY
5
17
100
AcDbDictionary
0
ENDSEC
0
EOF
