0
SECTION
2
HEADER
9
$INSUNITS
70
4
9
$ACADVER
1
AC1014
9
$HANDSEED
5
FFFF
0
ENDSEC
0
SECTION
2
TABLES
0
TABLE
2
VPORT
5
8
100
AcDbSymbolTable
0
ENDTAB
0
TABLE
2
LTYPE
5
5
100
AcDbSymbolTable
0
LTYPE
5
14
100
AcDbSymbolTableRecord
100
AcDbLinetypeTableRecord
2
BYBLOCK
70
0
0
LTYPE
5
15
100
AcDbSymbolTableRecord
100
AcDbLinetypeTableRecord
2
BYLAYER
70
0
0
ENDTAB
0
TABLE
2
LAYER
5
2
100
AcDbSymbolTable
70
2
0
LAYER
5
50
100
AcDbSymbolTableRecord
100
AcDbLayerTableRecord
2
0
70
0
6
CONTINUOUS
0
ENDTAB
0
TABLE
2
STYLE
5
3
100
AcDbSymbolTable
70
1
0
STYLE
5
11
100
AcDbSymbolTableRecord
100
AcDbTextStyleTableRecord
2
STANDARD
70
0
0
ENDTAB
0
TABLE
2
VIEW
5
6
100
AcDbSymbolTable
70
0
0
ENDTAB
0
TABLE
2
UCS
5
7
100
AcDbSymbolTable
70
0
0
ENDTAB
0
TABLE
2
APPID
5
9
100
AcDbSymbolTable
70
2
0
APPID
5
12
100
AcDbSymbolTableRecord
100
AcDbRegAppTableRecord
2
ACAD
70
0
0
ENDTAB
0
TABLE
2
DIMSTYLE
5
A
100
AcDbSymbolTable
70
1
0
ENDTAB
0
TABLE
2
BLOCK_RECORD
5
1
100
AcDbSymbolTable
70
1
0
BLOCK_RECORD
5
1F
100
AcDbSymbolTableRecord
100
AcDbBlockTableRecord
2
*MODEL_SPACE
0
BLOCK_RECORD
5
1B
100
AcDbSymbolTableRecord
100
AcDbBlockTableRecord
2
*PAPER_SPACE
0
ENDTAB
0
ENDSEC
0
SECTION
2
BLOCKS
0
BLOCK
5
20
100
AcDbEntity
100
AcDbBlockBegin
2
*MODEL_SPACE
0
ENDBLK
5
21
100
AcDbEntity
100
AcDbBlockEnd
0
BLOCK
5
1C
100
AcDbEntity
100
AcDbBlockBegin
2
*PAPER_SPACE
0
ENDBLK
5
1D
100
AcDbEntity
100
AcDbBlockEnd
0
ENDSEC
0
SECTION
2
ENTITIES
0
ARC
5
100
100
AcDbEntity
8
0
100
AcDbCircle
10
-24.999999582767472
20
26.98546691200287
30
0
40
3.9999999999999676
210
0
220
0
230
1
100
AcDbArc
50
104.37366238327111
51
180
0
LINE
5
101
100
AcDbEntity
8
0
100
AcDbLine
10
-28.999999582767494
20
-37.000000000000007
30
0
11
-28.999999582767494
21
26.985466912002888
31
0
0
CIRCLE
5
102
100
AcDbEntity
8
0
100
AcDbCircle
10
-24.999999582767472
20
26.98546691200287
30
0
40
1.2000000000000008
210
0
220
0
230
1
0
CIRCLE
5
103
100
AcDbEntity
8
0
100
AcDbCircle
10
17.00000025331974
20
31.000000536441803
30
0
40
1.200000000000002
210
0
220
0
230
1
0
ARC
5
104
100
AcDbEntity
8
0
100
AcDbCircle
10
29.999965213375024
20
26.94425948118322
30
0
40
3.9999999999944968
210
0
220
-0
230
1
100
AcDbArc
50
0
51
75.540482600718505
0
CIRCLE
5
105
100
AcDbEntity
8
0
100
AcDbCircle
10
31.000000461935997
20
26.000000461935997
30
0
40
1.1999999999999988
210
0
220
0
230
1
0
LINE
5
106
100
AcDbEntity
8
0
100
AcDbLine
10
33.999965213369521
20
-18.400983399861921
30
0
11
33.999965213369521
21
26.944259481183224
31
0
0
ARC
5
107
100
AcDbEntity
8
0
100
AcDbCircle
10
29.999965213421508
20
-18.400983399861921
30
0
40
3.999999999948014
210
-0
220
0
230
1
100
AcDbArc
50
-44.999999999910898
51
0
0
LINE
5
108
100
AcDbEntity
8
0
100
AcDbLine
10
32.828392338135338
20
-21.229410524566951
30
0
11
14.229375738014019
21
-39.828427124746199
31
0
0
CIRCLE
5
109
100
AcDbEntity
8
0
100
AcDbCircle
10
31.000000461935997
20
-18.000000193715096
30
0
40
1.1999999999999991
210
0
220
0
230
1
0
CIRCLE
5
110
100
AcDbEntity
8
0
100
AcDbCircle
10
11.000000111758709
20
-38.000000491738319
30
0
40
1.2
210
0
220
0
230
1
0
ARC
5
111
100
AcDbEntity
8
0
100
AcDbCircle
10
11.400948613267834
20
-37.000000000000021
30
0
40
3.9999999999999858
210
0
220
0
230
1
100
AcDbArc
50
269.99999999999989
51
315.00000000000006
0
LINE
5
112
100
AcDbEntity
8
0
100
AcDbLine
10
-24.999999582767497
20
-41.000000000000007
30
0
11
11.400948613267827
21
-41.000000000000007
31
0
0
ARC
5
113
100
AcDbEntity
8
0
100
AcDbCircle
10
-24.999999582767494
20
-37.000000000000007
30
0
40
3.9999999999999947
210
0
220
0
230
1
100
AcDbArc
50
180
51
269.99999999999994
0
CIRCLE
5
114
100
AcDbEntity
8
0
100
AcDbCircle
10
-24.999999582767494
20
-37.000000000000007
30
0
40
1.2000000000000011
210
0
220
0
230
1
0
LINE
5
115
100
AcDbEntity
8
0
100
AcDbLine
10
25.00000037252903
20
20.000000417232513
30
0
11
25.00000037252903
21
-7.0000001043081284
31
0
0
LINE
5
116
100
AcDbEntity
8
0
100
AcDbLine
10
22.500000335276127
20
-7.0000001043081284
30
0
11
22.500000335276127
21
28.000000417232513
31
0
0
LINE
5
117
100
AcDbEntity
8
0
100
AcDbLine
10
25.00000037252903
20
-7.0000001043081284
30
0
11
22.500000335276127
21
-7.0000001043081284
31
0
0
LWPOLYLINE
5
118
100
AcDbEntity
8
0
100
AcDbPolyline
90
12
70
1
43
0.0
10
-10.586911559915606
20
13.934392832934099
42
-0.24216954766298249
10
5.1825996358894519
20
16.714983129338737
42
-0.2752313355770985
10
14.869214297225364
20
17.547263780521153
42
-0.085050746249939732
10
19.862693381259774
20
11.5962671425791
42
-0.27523133557709983
10
17.360993959590544
20
2.2013379420390122
42
-0.24216954766298249
10
11.884300195890933
20
-12.845754506993609
42
-0.27523133557709956
10
7.7617690522251914
20
-21.650749205972524
42
-0.085050746249940523
10
0.11131524391431613
20
-22.999730627041515
42
-0.27523133557709717
10
-6.774082399674926
20
-16.135730774973108
42
-0.2421695476629826
10
-17.066899831780379
20
-3.8692286223451173
42
-0.27523133557709883
10
-22.63098334945056
20
4.1034854254513773
42
-0.085050746249940065
10
-19.97400862517415
20
11.403463484462478
42
-0.27523133557709883
0
LINE
5
119
100
AcDbEntity
8
0
100
AcDbLine
10
23.047716322155139
20
31.147200466721575
30
0
11
23.047716322155132
21
32.568797052133817
31
0
0
LINE
5
120
100
AcDbEntity
8
0
100
AcDbLine
10
23.047716322155139
20
31.147200466721575
30
0
11
22.500000335276127
21
28.000000417232513
31
0
0
LINE
5
121
100
AcDbEntity
8
0
100
AcDbLine
10
25.00000037252903
20
20.000000417232513
30
0
11
28.099999349564314
21
19.99999937415123
31
0
0
LINE
5
122
100
AcDbEntity
8
0
100
AcDbLine
10
29.1544721448833
20
31.276832472640024
30
0
11
29.15447214488324
21
28.499932725201994
31
0
0
CIRCLE
5
123
100
AcDbEntity
8
0
100
AcDbCircle
10
31.000000461935997
20
3.9999998062849063
30
0
40
1.1999999999999991
210
0
220
-0
230
1
0
ARC
5
124
100
AcDbEntity
8
0
100
AcDbCircle
10
2.4198329939137753
20
-80.011894795335436
30
0
40
114.45488957427015
210
0
220
-0
230
1
100
AcDbArc
50
75.540482600718477
51
76.491929618225853
0
ARC
5
125
100
AcDbEntity
8
0
100
AcDbCircle
10
2.4198329939137753
20
-80.011894795335436
30
0
40
114.45488957427014
210
0
220
-0
230
1
100
AcDbArc
50
79.617006643041989
51
104.37366238327117
0
LINE
5
126
100
AcDbEntity
8
0
100
AcDbLine
10
28.099999349564314
20
19.99999937415123
30
0
11
28.100002208229967
21
28.495847901997024
31
0
0
LINE
5
127
100
AcDbEntity
8
0
100
AcDbLine
10
28.100002208229967
20
28.495847901997024
30
0
11
29.15447214488324
21
28.499932725201994
31
0
0
ENDSEC
0
SECTION
2
OBJECTS
0
DICTIONARY
5
C
100
AcDbDictionary
3
ACAD_GROUP
350
D
3
ACAD_MLINESTYLE
350
17
0
DICTIONARY
5
D
100
AcDbDictionary
0
DICTIONARY
5
1A
330
C
100
AcDbDictionary
0
DICTIONARY
5
17
100
AcDbDictionary
0
ENDSEC
0
EOF
