0
SECTION
2
HEADER
9
$INSUNITS
70
4
9
$ACADVER
1
AC1014
9
$HANDSEED
5
FFFF
0
ENDSEC
0
SECTION
2
TABLES
0
TABLE
2
VPORT
5
8
100
AcDbSymbolTable
0
ENDTAB
0
TABLE
2
LTYPE
5
5
100
AcDbSymbolTable
0
LTYPE
5
14
100
AcDbSymbolTableRecord
100
AcDbLinetypeTableRecord
2
BYBLOCK
70
0
0
LTYPE
5
15
100
AcDbSymbolTableRecord
100
AcDbLinetypeTableRecord
2
BYLAYER
70
0
0
ENDTAB
0
TABLE
2
LAYER
5
2
100
AcDbSymbolTable
70
2
0
LAYER
5
50
100
AcDbSymbolTableRecord
100
AcDbLayerTableRecord
2
0
70
0
6
CONTINUOUS
0
ENDTAB
0
TABLE
2
STYLE
5
3
100
AcDbSymbolTable
70
1
0
STYLE
5
11
100
AcDbSymbolTableRecord
100
AcDbTextStyleTableRecord
2
STANDARD
70
0
0
ENDTAB
0
TABLE
2
VIEW
5
6
100
AcDbSymbolTable
70
0
0
ENDTAB
0
TABLE
2
UCS
5
7
100
AcDbSymbolTable
70
0
0
ENDTAB
0
TABLE
2
APPID
5
9
100
AcDbSymbolTable
70
2
0
APPID
5
12
100
AcDbSymbolTableRecord
100
AcDbRegAppTableRecord
2
ACAD
70
0
0
ENDTAB
0
TABLE
2
DIMSTYLE
5
A
100
AcDbSymbolTable
70
1
0
ENDTAB
0
TABLE
2
BLOCK_RECORD
5
1
100
AcDbSymbolTable
70
1
0
BLOCK_RECORD
5
1F
100
AcDbSymbolTableRecord
100
AcDbBlockTableRecord
2
*MODEL_SPACE
0
BLOCK_RECORD
5
1B
100
AcDbSymbolTableRecord
100
AcDbBlockTableRecord
2
*PAPER_SPACE
0
ENDTAB
0
ENDSEC
0
SECTION
2
BLOCKS
0
BLOCK
5
20
100
AcDbEntity
100
AcDbBlockBegin
2
*MODEL_SPACE
0
ENDBLK
5
21
100
AcDbEntity
100
AcDbBlockEnd
0
BLOCK
5
1C
100
AcDbEntity
100
AcDbBlockBegin
2
*PAPER_SPACE
0
ENDBLK
5
1D
100
AcDbEntity
100
AcDbBlockEnd
0
ENDSEC
0
SECTION
2
ENTITIES
0
LINE
5
100
100
AcDbEntity
8
0
100
AcDbLine
10
33.999965213369521
20
-18.400983399861921
30
0
11
33.999965213369521
21
26.944259481183224
31
0
0
ARC
5
101
100
AcDbEntity
8
0
100
AcDbCircle
10
29.999965213375024
20
26.94425948118322
30
0
40
3.9999999999944968
210
0
220
-0
230
1
100
AcDbArc
50
0
51
75.540482600718505
0
ARC
5
102
100
AcDbEntity
8
0
100
AcDbCircle
10
29.999965213421508
20
-18.400983399861921
30
0
40
3.999999999948014
210
-0
220
0
230
1
100
AcDbArc
50
-44.999999999910898
51
0
0
CIRCLE
5
103
100
AcDbEntity
8
0
100
AcDbCircle
10
31.000000461935997
20
-18.000000193715096
30
0
40
1.1999999999999991
210
0
220
0
230
1
0
CIRCLE
5
104
100
AcDbEntity
8
0
100
AcDbCircle
10
31.000000461935997
20
26.000000461935997
30
0
40
1.1999999999999988
210
0
220
0
230
1
0
CIRCLE
5
105
100
AcDbEntity
8
0
100
AcDbCircle
10
17.00000025331974
20
31.000000536441803
30
0
40
1.200000000000002
210
0
220
0
230
1
0
LINE
5
106
100
AcDbEntity
8
0
100
AcDbLine
10
25.00000037252903
20
28.000000417232513
30
0
11
25.00000037252903
21
-7.0000001043081284
31
0
0
LINE
5
107
100
AcDbEntity
8
0
100
AcDbLine
10
22.500000335276127
20
-7.0000001043081284
30
0
11
22.500000335276127
21
28.000000417232513
31
0
0
LINE
5
108
100
AcDbEntity
8
0
100
AcDbLine
10
25.00000037252903
20
-7.0000001043081284
30
0
11
22.500000335276127
21
-7.0000001043081284
31
0
0
ARC
5
109
100
AcDbEntity
8
0
100
AcDbCircle
10
2.4198329939137753
20
-80.011894795335436
30
0
40
114.45488957427014
210
0
220
-0
230
1
100
AcDbArc
50
79.617006643041961
51
86.035937643105441
0
LINE
5
110
100
AcDbEntity
8
0
100
AcDbLine
10
32.828392338135338
20
-21.229410524566951
30
0
11
21.352510627184344
21
-32.705292235553685
31
0
0
LINE
5
111
100
AcDbEntity
8
0
100
AcDbLine
10
0.93174662102306638
20
29.537008088350593
30
0
11
8.0582750556832501
21
33.644351570928393
31
0
0
LINE
5
112
100
AcDbEntity
8
0
100
AcDbLine
10
1.5612903004200815
20
-29.472803092596539
30
0
11
17.488807322023664
21
-33.740568415968177
31
0
0
ARC
5
113
100
AcDbEntity
8
0
100
AcDbCircle
10
10.055663209261844
20
30.178743317830126
30
0
40
3.9999999999998681
210
0
220
-0
230
1
100
AcDbArc
50
86.035937643104916
51
119.95680980230392
0
ARC
5
114
100
AcDbEntity
8
0
100
AcDbCircle
10
-1.1506830239494281
20
33.15016928147331
30
0
40
4.1703053885474857
210
0
220
0
230
1
100
AcDbArc
50
271.5024175532792
51
299.95680980230378
0
ARC
5
115
100
AcDbEntity
8
0
100
AcDbCircle
10
18.524083502433754
20
-29.876865110811934
30
0
40
3.9999999999999742
210
0
220
0
230
1
100
AcDbArc
50
254.99999999999983
51
315.00000000008953
0
ARC
5
116
100
AcDbEntity
8
0
100
AcDbCircle
10
-2.6161006608909076
20
-45.063038403288417
30
0
40
16.140199264147657
210
0
220
-0
230
1
100
AcDbArc
50
75.000000000000242
51
87.257388298757675
0
ARC
5
117
100
AcDbEntity
8
0
100
AcDbCircle
10
0
20
0
30
0
40
29.000000000000004
210
0
220
0
230
1
100
AcDbArc
50
91.91817965143396
51
266.35470919480639
0
LWPOLYLINE
5
118
100
AcDbEntity
8
0
100
AcDbPolyline
90
12
70
1
43
0.0
10
-10.586911559915606
20
13.934392832934099
42
-0.24216954766298249
10
5.1825996358894519
20
16.714983129338737
42
-0.2752313355770985
10
14.869214297225366
20
17.547263780521142
42
-0.08505074624993951
10
19.862693381259771
20
11.596267142579112
42
-0.27523133557710017
10
17.360993959590544
20
2.2013379420390122
42
-0.24216954766298249
10
11.884300195890933
20
-12.845754506993609
42
-0.27523133557709956
10
7.7617690522251914
20
-21.650749205972524
42
-0.085050746249940523
10
0.1113152439143178
20
-22.999730627041522
42
-0.27523133557709717
10
-6.774082399674926
20
-16.135730774973108
42
-0.2421695476629826
10
-17.066899831780379
20
-3.8692286223451173
42
-0.27523133557709883
10
-22.63098334945056
20
4.1034854254513773
42
-0.085050746249940065
10
-19.97400862517415
20
11.403463484462478
42
-0.27523133557709883
0
LINE
5
119
100
AcDbEntity
8
0
100
AcDbLine
10
25.00000037252903
20
28.000000417232513
30
0
11
29.19999934732914
21
28.000000417232513
31
0
0
LINE
5
120
100
AcDbEntity
8
0
100
AcDbLine
10
29.19999934732914
20
28.000000417232513
30
0
11
29.19999934732914
21
31.265885725044193
31
0
0
LINE
5
121
100
AcDbEntity
8
0
100
AcDbLine
10
23.047716322155157
20
32.568797052133824
30
0
11
23.047716322155157
21
31.000000461935997
31
0
0
LINE
5
122
100
AcDbEntity
8
0
100
AcDbLine
10
23.047716322155157
20
31.000000461935997
30
0
11
22.500000335276127
21
28.000000417232513
31
0
0
ARC
5
123
100
AcDbEntity
8
0
100
AcDbCircle
10
2.4198329939137753
20
-80.011894795335436
30
0
40
114.45488957427015
210
0
220
-0
230
1
100
AcDbArc
50
75.540482600718477
51
76.468489285331913
0
ARC
5
124
100
AcDbEntity
8
0
100
AcDbCircle
10
2.4198329939137753
20
-80.011894795335436
30
0
40
114.45488957427014
210
0
220
-0
230
1
100
AcDbArc
50
79.617006643041961
51
86.035937643105441
0
CIRCLE
5
125
100
AcDbEntity
8
0
100
AcDbCircle
10
31.000000461935997
20
3.9999998062849063
30
0
40
1.1999999999999991
210
0
220
-0
230
1
0
ENDSEC
0
SECTION
2
OBJECTS
0
DICTIONARY
5
C
100
AcDbDictionary
3
ACAD_GROUP
350
D
3
ACAD_MLINESTYLE
350
17
0
DICTIONARY
5
D
100
AcDbDictionary
0
DICTIONARY
5
1A
330
C
100
AcDbDictionary
0
DICTIONARY
5
17
100
AcDbDictionary
0
ENDSEC
0
EOF
