0
SECTION
2
HEADER
9
$INSUNITS
70
4
9
$ACADVER
1
AC1014
9
$HANDSEED
5
FFFF
0
ENDSEC
0
SECTION
2
TABLES
0
TABLE
2
VPORT
5
8
100
AcDbSymbolTable
0
ENDTAB
0
TABLE
2
LTYPE
5
5
100
AcDbSymbolTable
0
LTYPE
5
14
100
AcDbSymbolTableRecord
100
AcDbLinetypeTableRecord
2
BYBLOCK
70
0
0
LTYPE
5
15
100
AcDbSymbolTableRecord
100
AcDbLinetypeTableRecord
2
BYLAYER
70
0
0
ENDTAB
0
TABLE
2
LAYER
5
2
100
AcDbSymbolTable
70
2
0
LAYER
5
50
100
AcDbSymbolTableRecord
100
AcDbLayerTableRecord
2
0
70
0
6
CONTINUOUS
0
ENDTAB
0
TABLE
2
STYLE
5
3
100
AcDbSymbolTable
70
1
0
STYLE
5
11
100
AcDbSymbolTableRecord
100
AcDbTextStyleTableRecord
2
STANDARD
70
0
0
ENDTAB
0
TABLE
2
VIEW
5
6
100
AcDbSymbolTable
70
0
0
ENDTAB
0
TABLE
2
UCS
5
7
100
AcDbSymbolTable
70
0
0
ENDTAB
0
TABLE
2
APPID
5
9
100
AcDbSymbolTable
70
2
0
APPID
5
12
100
AcDbSymbolTableRecord
100
AcDbRegAppTableRecord
2
ACAD
70
0
0
ENDTAB
0
TABLE
2
DIMSTYLE
5
A
100
AcDbSymbolTable
70
1
0
ENDTAB
0
TABLE
2
BLOCK_RECORD
5
1
100
AcDbSymbolTable
70
1
0
BLOCK_RECORD
5
1F
100
AcDbSymbolTableRecord
100
AcDbBlockTableRecord
2
*MODEL_SPACE
0
BLOCK_RECORD
5
1B
100
AcDbSymbolTableRecord
100
AcDbBlockTableRecord
2
*PAPER_SPACE
0
ENDTAB
0
ENDSEC
0
SECTION
2
BLOCKS
0
BLOCK
5
20
100
AcDbEntity
100
AcDbBlockBegin
2
*MODEL_SPACE
0
ENDBLK
5
21
100
AcDbEntity
100
AcDbBlockEnd
0
BLOCK
5
1C
100
AcDbEntity
100
AcDbBlockBegin
2
*PAPER_SPACE
0
ENDBLK
5
1D
100
AcDbEntity
100
AcDbBlockEnd
0
ENDSEC
0
SECTION
2
ENTITIES
0
LINE
5
100
100
AcDbEntity
8
0
100
AcDbLine
10
-24.97317766587318
20
-26.558313191795555
30
0
11
-24.973177665873173
21
28.941686808204441
31
0
0
ARC
5
101
100
AcDbEntity
8
0
100
AcDbCircle
10
-22.973177665873177
20
-26.558313191795555
30
0
40
2.0000000000000018
210
0
220
0
230
1
100
AcDbArc
50
180
51
270.00000000000011
0
LINE
5
102
100
AcDbEntity
8
0
100
AcDbLine
10
12.465840762881095
20
-28.558313191795559
30
0
11
-22.973177665873173
21
-28.558313191795559
31
0
0
ARC
5
103
100
AcDbEntity
8
0
100
AcDbCircle
10
12.46584076288109
20
-26.558313191795555
30
0
40
2.0000000000000018
210
-0
220
0
230
1
100
AcDbArc
50
270.00000000000017
51
315.00000000000017
0
LINE
5
104
100
AcDbEntity
8
0
100
AcDbLine
10
28.44103589649993
20
-13.411545182922918
30
0
11
13.880054325254189
21
-27.972526754168648
31
0
0
LINE
5
105
100
AcDbEntity
8
0
100
AcDbLine
10
29.026822334126834
20
-10.00000011920929
30
0
11
29.026822334126834
21
-11.99733162054982
31
0
0
ARC
5
106
100
AcDbEntity
8
0
100
AcDbCircle
10
27.026822334126805
20
-11.997331620549812
30
0
40
2.0000000000000275
210
-0
220
0
230
1
100
AcDbArc
50
315.00000000000034
51
360
0
LINE
5
107
100
AcDbEntity
8
0
100
AcDbLine
10
-22.973177665873173
20
30.941686808204437
30
0
11
19.793810599130687
21
30.941686808204445
31
0
0
ARC
5
108
100
AcDbEntity
8
0
100
AcDbCircle
10
-22.973177665873177
20
28.941686808204441
30
0
40
1.9999999999999973
210
0
220
-0
230
1
100
AcDbArc
50
89.999999999999901
51
180
0
CIRCLE
5
109
100
AcDbEntity
8
0
100
AcDbCircle
10
0
20
0
30
0
40
11
210
0
220
0
230
1
0
LWPOLYLINE
5
110
100
AcDbEntity
8
0
100
AcDbPolyline
90
8
70
1
43
0.0
10
-23.32803420957292
20
8.1199436843997095
10
-21.815580101169985
20
10.64070053173792
42
-0.41421356237309431
10
-19.071602738889844
20
11.326694872307959
10
-14.003650715964575
20
8.2859236585527913
42
-0.41421356237309465
10
-13.317656375394535
20
5.541946296272644
10
-14.830110483797458
20
3.0211894489344355
42
-0.41421356237309565
10
-17.57408784607761
20
2.3351951083643989
10
-22.642039869002879
20
5.3759663221195613
42
-0.41421356237309248
0
LWPOLYLINE
5
111
100
AcDbEntity
8
0
100
AcDbPolyline
90
8
70
1
43
0.0
10
-0.27340413088871363
20
-22.179839898917464
10
-0.17399502414293111
20
-16.270479095025863
42
-0.41421356237309515
10
1.8593619087160729
20
-14.304401888099779
10
4.7986284294759951
20
-14.353847144365751
42
-0.41421356237309537
10
6.7647056364020752
20
-16.387204077224759
10
6.665296529656298
20
-22.29656488111636
42
-0.41421356237309293
10
4.6319395967972916
20
-24.262642088042444
10
1.6926730760373656
20
-24.213196831776468
42
-0.41421356237309426
0
LWPOLYLINE
5
112
100
AcDbEntity
8
0
100
AcDbPolyline
90
8
70
1
43
0.0
10
19.345006869778562
20
10.853145026609495
10
14.17764574010751
20
7.9845554364730598
42
-0.41421356237309431
10
11.458294466678467
20
8.762455591827127
10
10.03148205432147
20
11.332657695431308
42
-0.41421356237309565
10
10.80938220967554
20
14.052008968860353
10
15.976743339346591
20
16.92059855899679
42
-0.41421356237309181
10
18.696094612775632
20
16.142698403642722
10
20.122907025132633
20
13.572496300038537
42
-0.41421356237309453
0
LINE
5
113
100
AcDbEntity
8
0
100
AcDbLine
10
21.79381059913068
20
19.89872316940049
30
0
11
21.793810599130676
21
28.941686808204441
31
0
0
LINE
5
114
100
AcDbEntity
8
0
100
AcDbLine
10
21.79381059913068
20
19.89872316940049
30
0
11
21.79381059913068
21
-6.0000001192092896
31
0
0
LINE
5
115
100
AcDbEntity
8
0
100
AcDbLine
10
23.793810599130683
20
-8.0000001192092878
30
0
11
27.026822334126841
21
-8.0000001192092896
31
0
0
ARC
5
116
100
AcDbEntity
8
0
100
AcDbCircle
10
19.793810599130676
20
28.941686808204441
30
0
40
1.9999999999999996
210
0
220
-0
230
1
100
AcDbArc
50
0
51
89.999999999999702
0
ARC
5
117
100
AcDbEntity
8
0
100
AcDbCircle
10
23.79381059913068
20
-6.0000001192092913
30
0
40
1.9999999999999973
210
0
220
0
230
1
100
AcDbArc
50
180
51
270.00000000000011
0
ARC
5
118
100
AcDbEntity
8
0
100
AcDbCircle
10
27.026822334126837
20
-10.000000119209286
30
0
40
1.9999999999999973
210
0
220
0
230
1
100
AcDbArc
50
0
51
89.999999999999901
0
CIRCLE
5
119
100
AcDbEntity
8
0
100
AcDbCircle
10
-22.000000327825546
20
28.000000417232513
30
0
40
1.2000000000000011
210
0
220
-0
230
1
0
CIRCLE
5
120
100
AcDbEntity
8
0
100
AcDbCircle
10
15.000000223517418
20
28.000000417232513
30
0
40
1.1999999999999988
210
0
220
-0
230
1
0
CIRCLE
5
121
100
AcDbEntity
8
0
100
AcDbCircle
10
12.500000163912773
20
-25.00000037252903
30
0
40
1.1999999999999993
210
0
220
-0
230
1
0
CIRCLE
5
122
100
AcDbEntity
8
0
100
AcDbCircle
10
-22.000000327825546
20
-25.00000037252903
30
0
40
1.1999999999999988
210
0
220
-0
230
1
0
CIRCLE
5
123
100
AcDbEntity
8
0
100
AcDbCircle
10
21.160545110877059
20
-17.081815558539944
30
0
40
1.2000000000000013
210
0
220
-0
230
1
0
ENDSEC
0
SECTION
2
OBJECTS
0
DICTIONARY
5
C
100
AcDbDictionary
3
ACAD_GROUP
350
D
3
ACAD_MLINESTYLE
350
17
0
DICTIONARY
5
D
100
AcDbDictionary
0
DICTIONARY
5
1A
330
C
100
AcDbDictionary
0
DICTIONARY
5
17
100
AcDbDictionary
0
ENDSEC
0
EOF
